<svg xmlns="http://www.w3.org/2000/svg" viewBox="0 0 1803.75 1803.75"><defs><style>.cls-1{fill:#fff;}.cls-2{fill:#25b2e7;}.cls-3{fill:#ee2e7b;}.cls-4{fill:#2b286d;}</style></defs><title>Asset 4</title><g id="Layer_2" data-name="Layer 2"><g id="Layer_5" data-name="Layer 5"><rect class="cls-1" width="1803.75" height="1803.75"/><path class="cls-2" d="M754.76,414H132.21v878h250.9v241.17l256.45-241.17H1049V414h0v734.53"/><polygon class="cls-3" points="1671.54 270.52 1671.54 1148.55 1420.63 1148.55 1420.63 1389.38 1164.18 1148.55 1048.98 1148.55 1048.98 414.03 754.77 414.03 754.77 270.52 1671.54 270.52"/><path class="cls-1" d="M550.57,620.87q-18.65,19-18.64,67.53,0,15.4.89,27.25c.58,7.9,1.27,15.39,2.07,22.52s1.47,14.3,2.07,21.6.87,15.53.87,24.59q0,15.4-11.25,28.45T486.91,827v59.23q28.44,1.2,39.67,14.21t11.25,28.44q0,13.64-.87,24.6t-2.07,21.6q-1.2,10.7-2.07,22.52t-.89,27.25q0,24.29,4.43,40.87t14.21,26.66a56.23,56.23,0,0,0,24.28,14.53q14.53,4.44,35.26,4.43h41.48V1058h-9.47c-11.09,0-18.57-2.27-22.52-6.79s-5.92-14.52-5.92-29.92q0-22.52,1.18-44.43t1.18-48q0-35.55-11.85-50.65t-35.55-20.42v-2.39q23.68-5.31,35.55-20.42T616,784.36q0-26.05-1.18-48T613.68,692q0-23.1,5.92-29.9c3.95-4.54,11.43-6.84,22.52-6.84h9.47v-53.3H610.11Q569.25,601.91,550.57,620.87Z"/><path class="cls-1" d="M1252.4,621.92q0-13.63.89-24.6c.58-7.3,1.29-14.52,2.07-21.62s1.49-14.59,2.07-22.5.89-17,.89-27.24q0-48.59-18.66-67.56t-59.52-18.94h-41.48v53.31h9.47q16.61,0,22.52,6.81c3.94,4.55,5.92,14.5,5.92,29.92,0,15-.37,29.82-1.2,44.44s-1.16,30.6-1.16,48q0,35.55,11.83,50.63T1221.59,693v2.38q-23.68,5.31-35.55,20.42t-11.83,50.66q0,26.06,1.16,48c.83,14.61,1.2,29.42,1.2,44.44q0,23.08-5.92,29.89t-22.52,6.81h-9.47v53.33h41.48q20.71,0,35.24-4.46a56,56,0,0,0,24.28-14.5q9.78-10.08,14.21-26.66t4.45-40.87q0-15.4-.89-27.24t-2.07-22.53c-.78-7.1-1.49-14.29-2.07-21.6s-.89-15.5-.89-24.59q0-15.4,11.25-28.45t39.69-14.21V664.57q-28.44-1.2-39.69-14.23T1252.4,621.92Z"/><polygon class="cls-4" points="1048.96 1148.56 1048.96 414.03 754.77 414.03 754.77 414.03 754.75 414.03 754.75 1148.56 1048.96 1148.56"/></g></g></svg>